<svg xmlns="http://www.w3.org/2000/svg" viewBox="0 0 128 128" role="img" aria-labelledby="title desc">
  <title id="title">PnP Launchpad logo</title>
  <desc id="desc">A playful tabletop rocket token launching from a game board tile.</desc>
  <defs>
    <linearGradient id="tile" x1="0" y1="0" x2="1" y2="1">
      <stop offset="0" stop-color="#1e5f74"/>
      <stop offset="1" stop-color="#173f5f"/>
    </linearGradient>
    <linearGradient id="rocket" x1="0" y1="0" x2="0" y2="1">
      <stop offset="0" stop-color="#ffe58f"/>
      <stop offset="1" stop-color="#f4b740"/>
    </linearGradient>
  </defs>
  <rect x="8" y="8" width="112" height="112" rx="22" fill="url(#tile)"/>
  <rect x="20" y="88" width="88" height="22" rx="7" fill="#f5f0de" opacity="0.92"/>
  <g transform="translate(64 64)">
    <path d="M0-35c10 7 16 18 16 30L0 8-16-5c0-12 6-23 16-30Z" fill="url(#rocket)" stroke="#4b3517" stroke-width="3"/>
    <circle cx="0" cy="-10" r="6" fill="#173f5f" stroke="#f5f0de" stroke-width="2"/>
    <path d="M-16-2l-12 7 9 7 7-9Z" fill="#e6602f" stroke="#4b3517" stroke-width="2"/>
    <path d="M16-2l12 7-9 7-7-9Z" fill="#e6602f" stroke="#4b3517" stroke-width="2"/>
    <path d="M0 8 9 26H-9Z" fill="#ff6b35" stroke="#4b3517" stroke-width="2"/>
  </g>
</svg>
